<!DOCTYPE svg PUBLIC "-//W3C//DTD SVG 1.1//EN" "http://www.w3.org/Graphics/SVG/1.1/DTD/svg11.dtd">
<!-- Uploaded to: SVG Repo, www.svgrepo.com, Transformed by: SVG Repo Mixer Tools -->
<svg xmlns="http://www.w3.org/2000/svg" aria-label="Airbnb" role="img" viewBox="-51.2 -51.2 614.40 614.40" width="800px" height="800px" fill="#ec2727" stroke="#ec2727" transform="matrix(1, 0, 0, 1, 0, 0)rotate(0)">
<g id="SVGRepo_bgCarrier" stroke-width="0"/>
<g id="SVGRepo_tracerCarrier" stroke-linecap="round" stroke-linejoin="round" stroke="#f2b5b5" stroke-width="51.2">
<rect width="512" height="512" rx="15%" fill="#ff5a5f"/>
<path fill="none" stroke="#ffffff" stroke-width="23" d="M255 84c-29 0-41 24-41 24-36 66-68 133-101 203 0 0-26 51 15 84 57 45 110-22 127-39s48-56 48-100c0 0-1-44-48-44s-49 44-49 44c0 41 32 83 49 100 17 18 71 85 129 39 36-29 13-84 13-84-31-68-67-143-100-203 0 0-10-24-42-24z"/>
</g>
<g id="SVGRepo_iconCarrier">
<rect width="512" height="512" rx="15%" fill="#ff5a5f"/>
<path fill="none" stroke="#ffffff" stroke-width="23" d="M255 84c-29 0-41 24-41 24-36 66-68 133-101 203 0 0-26 51 15 84 57 45 110-22 127-39s48-56 48-100c0 0-1-44-48-44s-49 44-49 44c0 41 32 83 49 100 17 18 71 85 129 39 36-29 13-84 13-84-31-68-67-143-100-203 0 0-10-24-42-24z"/>
</g>
</svg>